<svg width="20" height="18">
  <g fill="none" fill-rule="evenodd">
    <path d="M16.349.4H2.852c-.758 0-1.483.3-2.018.834A2.837 2.837 0 0 0 0 3.246v7.485a2.839 2.839 0 0 0 .833 2.013c.535.534 1.261.834 2.019.834h.988v2.487c0 1.181.713 1.49 1.582.69l3.444-3.177h7.489a2.858 2.858 0 0 0 2.014-.836 2.837 2.837 0 0 0 .831-2.011V3.246c0-.755-.3-1.478-.834-2.012A2.856 2.856 0 0 0 16.348.4z" fill="#FFF"/>
    <text font-family="Helvetica" font-size="10.56" letter-spacing="-.132" fill="#191919" transform="translate(0 -2)">
      <tspan x="3.84" y="10">...</tspan>
    </text>
  </g>
</svg>
