<svg width="28" height="28">
  <g stroke="#191919" fill="none" fill-rule="evenodd">
    <path d="M14.023 9c2.737 0 4.963 2.2 4.963 4.905a4.888 4.888 0 0 1-2.505 4.264c3.015.963 5.24 3.576 5.519 6.831h-1.53c-.325-3.255-3.154-5.639-6.447-5.639-3.339 0-6.121 2.384-6.446 5.639H6c.325-3.21 2.55-5.868 5.519-6.83a4.886 4.886 0 0 1-2.505-4.265c0-2.704 2.273-4.905 5.01-4.905zm0 1.559c-1.9 0-3.432 1.513-3.432 3.346 0 1.88 1.53 3.393 3.432 3.393a3.394 3.394 0 0 0 3.386-3.393c0-1.834-1.53-3.346-3.386-3.346z" stroke-width=".5" fill="#000"/>
    <circle stroke-width="2" cx="14" cy="14" r="13"/>
  </g>
</svg>
