
<svg width="20px" height="26px" viewBox="0 0 20 26" version="1.1" xmlns="http://www.w3.org/2000/svg" xmlns:xlink="http://www.w3.org/1999/xlink">
    <g id="Page-1" stroke="none" stroke-width="1" fill="none" fill-rule="evenodd">
        <g id="Bag-1" fill="#191919" fill-rule="nonzero">
            <path d="M0,12.1813762 L0,7.39539225 L4.3774955,7.39539225 L4.3774955,5.58795726 C4.3774955,3.59088212 5.4486388,1.74629301 7.1887477,0.748411289 C8.9287246,-0.24947043 11.0711434,-0.24947043 12.8112523,0.748411289 C14.5513612,1.74629301 15.6225045,3.5909477 15.6225045,5.58795726 L15.6225045,7.39411333 L20,7.39411333 L19.99967,26 L12.585935,26 C12.7689892,25.3527909 12.8942892,24.681333 12.9559156,23.9915458 L17.9802673,23.9915458 L17.9802673,9.40273151 L15.6227355,9.40273151 L15.6227355,15.5257836 L13.6029038,15.5257836 L13.6029038,9.40273151 L6.3974922,9.40273151 L6.3974922,12.9142008 C5.7539602,12.6332214 5.0783431,12.4120284 4.3776605,12.2576412 L4.3776605,9.40273151 L2.02012869,9.40273151 L2.02012869,12.000018 C2.01342053,12.000006 2.00671097,12 2,12 C1.31700701,12 0.64855249,12.0622466 0,12.1813762 Z M6.3972942,5.58795726 L6.3972942,7.39411005 L13.6027058,7.39539225 L13.6027058,5.58795726 C13.6027058,3.61013143 11.9901996,2.00765079 10,2.00765079 C8.0098004,2.00765079 6.3972942,3.61016422 6.3972942,5.58795726 Z" id="Combined-Shape"></path>
        </g>
    </g>
</svg>